<svg id="Layer_1" data-name="Layer 1" xmlns="http://www.w3.org/2000/svg" viewBox="0 0 547.96 440.82"><defs><style>.cls-1,.cls-11{fill:none;}.cls-1{stroke:#d1d3d4;stroke-miterlimit:10;stroke-width:25px;}.cls-2{fill:#d1d3d4;}.cls-3{fill:#3fade2;}.cls-4{fill:#ef496f;}.cls-5{fill:#f8c436;}.cls-6{fill:#f8b8c5;}.cls-7{font-size:18px;}.cls-7,.cls-9{fill:#f6f6f6;font-family:Avenir-Black, Avenir;}.cls-8{letter-spacing:-0.09em;}.cls-9{font-size:16px;}.cls-10{letter-spacing:-0.09em;}</style></defs><title>sharesies-diagram</title><path class="cls-1" d="M421.25,136.74A158.31,158.31,0,1,1,283,217.87" transform="translate(-142.59 -73.82)"/><polygon class="cls-2" points="167.93 157.83 141.59 146.2 115.26 134.57 138.5 117.58 161.73 100.59 164.83 129.21 167.93 157.83"/><rect class="cls-3" x="196.83" y="316.9" width="163.77" height="97.44" rx="18.6" ry="18.6"/><rect class="cls-4" x="38.39" y="174.34" width="163.77" height="97.44" rx="18.6" ry="18.6"/><rect class="cls-5" x="353.47" y="183.23" width="163.77" height="97.44" rx="18.6" ry="18.6"/><rect class="cls-6" x="193.93" y="31.77" width="163.77" height="97.44" rx="18.6" ry="18.6"/><text class="cls-7" transform="translate(214.8 62.07)">WEB <tspan x="0" y="21.6">APPLIC</tspan><tspan class="cls-8" x="63.34" y="21.6">A</tspan><tspan x="75.02" y="21.6">TION</tspan></text><text class="cls-7" transform="translate(374.32 220.63)">DESIGN<tspan x="0" y="21.6">SYSTEM</tspan></text><text class="cls-7" transform="translate(59.24 204)">TESTING /<tspan x="0" y="21.6">VISUAL </tspan><tspan x="0" y="43.2">REGRESSION</tspan></text><text class="cls-9" transform="translate(207.11 360.89)">DOCUMEN<tspan class="cls-10" x="86.5" y="0">TA</tspan><tspan x="104.59" y="0">TON</tspan></text><rect class="cls-11" width="547.96" height="440.82"/></svg>